<svg width="1405" height="903" viewBox="0 0 1405 903" fill="none" xmlns="http://www.w3.org/2000/svg">
<rect x="1" width="1404" height="903" fill="#D9D9D9"/>
<rect x="1192.5" y="547.5" width="209" height="352" fill="#555555" stroke="black" stroke-width="7"/>
<rect x="4.5" y="3.5" width="409" height="537" fill="#434343" stroke="black" stroke-width="7"/>
<rect x="846.5" y="3.5" width="555" height="376" fill="#434343" stroke="black" stroke-width="7"/>
<rect x="747.5" y="547.5" width="438" height="352" fill="#434343" stroke="black" stroke-width="7"/>
<rect x="3.5" y="547.5" width="737" height="352" fill="#434343" stroke="black" stroke-width="7"/>
<path d="M485.872 286.131C482.722 291.06 473.706 309.132 467.556 323.423C463.823 332.096 464.148 340.851 465.716 348.536C468.292 361.161 507.787 356.737 530.191 349.303C536.403 347.241 533.395 327.001 530.469 305.881C528.922 294.711 512.213 276.301 497.685 263.531C490.175 256.93 481.853 246.375 477.501 239.749C474.855 235.72 495.703 253.463 523.795 277.217C540.347 291.213 552.812 302.398 562.33 311.441C569.714 318.456 572.309 326.852 574.339 329.336C575.357 330.582 576.817 331.373 579.078 330.715C593.988 326.372 602.588 299.818 607.836 282.336C609.122 278.054 609.432 267.665 608.087 256.104C607.593 251.853 601.285 271.101 601.733 286.03C601.899 291.565 603.077 292.893 605.107 294.482C613.986 301.431 623.403 301.067 632.229 300.395C635.295 300.162 635.23 298.379 635.454 296.118C637.236 278.132 635.691 254.495 635.216 246.783C634.772 239.57 651.021 241.324 657.817 241.324C658.339 241.324 655.61 242.668 653.349 245.377C649.037 250.544 649.717 263.429 649.711 274.515C649.708 278.457 651.496 278.881 652.861 278.888C654.225 278.894 655.569 278.446 656.486 276.871C661.131 268.888 661.028 256.341 661.252 245.914C661.444 236.967 684.002 265.249 698.102 269.614C700.377 270.318 701.734 266.715 702.651 264.665C704.315 260.942 704.477 248.67 703.133 233.503C702.688 228.48 699.1 229.539 696.595 231.344C687.075 238.207 680.526 243.551 676.649 251.026C675.702 252.852 676.86 255.309 678.659 257.584C691.093 273.303 717.566 276.165 727.75 275.731C731.745 275.56 731.633 263.578 731.185 251.141C730.942 244.398 713.683 225.655 689.48 199.185C673.275 184.324 666.921 177.521 668.251 177.949C670.478 179.721 675.855 184.65 681.395 189.728" stroke="#595959" stroke-width="2" stroke-linecap="round"/>
<path d="M597.211 444.993C595.419 444.993 603.905 444.545 624.211 440.73C648.716 436.125 664.151 421.042 672.508 413.594C680.392 406.568 682.752 391.238 681.632 373.607C680.881 361.786 673.275 354.51 668.53 348.631C666.594 346.233 665.128 345.44 662.195 345.202C654.803 344.603 648.373 347.218 644.537 349.927C640.397 352.851 636.601 356.709 634.116 361.679C632.08 365.752 631.156 376.112 631.38 389.908C631.496 397.013 637.891 403.757 648.278 412.345C664.395 425.67 680.01 422.807 691.083 422.372C693.754 422.268 694.945 419.684 696.086 417.416C703.702 402.276 698.15 380.742 696.12 377.579C694.306 374.752 690.913 373.044 687.98 371.679C686.54 371.009 684.599 373.003 683.676 375.488C682.752 377.973 682.752 381.557 683.425 383.852C684.097 386.146 685.441 387.043 687.254 387.504C696.033 389.74 706.242 382.562 713.507 375.997C716.261 373.508 717.593 370.328 717.831 369.636C721.307 359.507 709.908 393.75 711.931 406.486C712.331 408.999 714.851 410.56 716.67 411.483C718.49 412.406 720.282 412.406 721.653 411.734C728.239 408.506 727.56 384.952 724.634 372.372C724.268 370.801 722.156 370.776 721.239 371.442C718.964 373.093 719.413 377.986 720.757 381.381C724.087 389.79 737.037 375.773 744.505 371.462C747.552 369.703 748.823 366.255 750.181 363.322C750.876 361.821 750.642 359.941 749.97 358.794C749.298 357.646 747.954 357.198 746.589 357.416C743.697 357.876 742.047 368.414 742.713 383.336C742.983 389.394 746.514 391.985 748.796 392.922C751.077 393.859 752.869 392.963 754.24 390.933C764.862 375.211 755.639 345.929 750.439 335.501C745.885 326.371 741.599 320.103 738.884 314.665C738.24 313.377 738.422 311.957 739.318 314.625C742.428 323.883 751.022 343.485 762.333 363.614C770.035 377.322 773.263 382.521 775.293 384.334C776.208 385.151 777.771 384.354 778.911 382.779C781.683 378.952 781.871 365.44 782.32 352.066C782.642 342.431 794.078 365.331 796.787 365.786C798.133 366.012 799.496 365.345 800.636 363.994C803.3 360.839 803.596 354.51 803.148 352.663C802.725 350.919 801.804 361.57 801.566 376.241C801.329 390.912 801.777 412.868 802.456 426.867C803.397 446.284 804.954 460.744 798.233 474.322C789.056 492.86 757.947 477.146 747.546 473.982C736.851 470.729 727.614 458.191 723.941 449.094C723.26 447.407 724.382 445.482 727.302 442.318C730.221 439.155 735.598 434.674 752.034 428.557C768.47 422.44 795.802 414.823 810.779 410.899C827.548 406.975 831.187 405.631 834.574 402.922C836.17 401.557 837.514 400.213 840.257 396.113" stroke="#595959" stroke-width="2" stroke-linecap="round"/>
</svg>
