<svg width="1540" height="709" viewBox="0 0 1540 709" fill="none" xmlns="http://www.w3.org/2000/svg">
<path d="M856 0H785V709H856V0Z" fill="white"/>
<path d="M773 0H702V709H773V0Z" fill="white"/>
<rect y="304" width="155" height="100" fill="#171717"/>
<rect x="77" width="613" height="709" fill="#D9D9D9"/>
<rect x="868" width="613" height="709" fill="#D9D9D9"/>
<rect x="222.5" y="471.5" width="237" height="234" fill="#595959" stroke="black" stroke-width="7"/>
<rect x="1103.5" y="471.5" width="237" height="234" fill="#595959" stroke="black" stroke-width="7"/>
<rect x="222.5" y="3.5" width="237" height="234" fill="#595959" stroke="black" stroke-width="7"/>
<rect x="1103.5" y="3.5" width="237" height="234" fill="#595959" stroke="black" stroke-width="7"/>
<rect x="466.5" y="3.5" width="225" height="702" fill="#595959" stroke="black" stroke-width="7"/>
<rect x="871.5" y="3.5" width="225" height="702" fill="#595959" stroke="black" stroke-width="7"/>
<rect x="499" y="345" width="161" height="166" fill="#D9D9D9"/>
<rect x="908" y="158" width="161" height="166" fill="#D9D9D9"/>
<rect x="654" y="606" width="254" height="28" fill="#D9D9D9"/>
<rect x="654" y="62" width="254" height="28" fill="#D9D9D9"/>
<rect x="1385" y="304" width="155" height="100" fill="#171717"/>
</svg>
