<svg width="1026" height="875" viewBox="0 0 1026 875" fill="none" xmlns="http://www.w3.org/2000/svg">
<rect width="1026" height="875" fill="#D9D9D9"/>
<path d="M352.257 373.585C351.361 377.17 351.348 392.458 353.371 415.066C357.634 428.711 360.404 434.672 360.852 437.605C361.3 439.194 362.196 440.986 363.12 442.833" stroke="#595959" stroke-width="2" stroke-linecap="round"/>
<path d="M360.404 418.392C365.347 417.048 377.105 409.838 395.863 394.685C401.111 390.802 405.184 388.534 409.93 386.274C411.987 385.357 413.331 384.909 414.716 384.447" stroke="#595959" stroke-width="2" stroke-linecap="round"/>
<path d="M397.065 350.503C397.065 355.879 397.065 363.578 398.857 375.751C404.234 392.404 413.304 410.164 422.571 421.936C426.461 425.643 428.701 424.747 431.01 423.823" stroke="#595959" stroke-width="2" stroke-linecap="round"/>
<path d="M454.092 389.879C454.092 390.327 454.092 390.775 453.868 391.678C453.644 392.581 453.196 393.925 450.277 394.617C447.357 395.31 441.981 395.31 438.763 394.638C435.545 393.966 434.648 392.621 433.963 391.257C430.974 385.31 431.01 374.101 432.13 364.82C432.514 361.634 435.49 362.261 437.541 363.612C439.591 364.963 441.383 367.203 442.306 369.926C443.23 372.648 443.23 375.785 441.872 379.016" stroke="#595959" stroke-width="2" stroke-linecap="round"/>
<path d="M482.606 354.576C480.813 354.576 478.098 355.024 474.934 357.047C466.909 362.179 467.67 370.842 465.416 378.297C464.428 381.563 464.954 387.054 466.299 390.048C467.643 393.042 470.331 393.49 473.06 392.825C478.84 391.416 483.04 386.729 485.98 382.893C488.933 374.508 490.752 365.941 492.545 359.369C494.337 357.726 497.922 359.518 501.615 361.365" stroke="#595959" stroke-width="2" stroke-linecap="round"/>
<path d="M507.046 342.356C507.942 342.356 516.021 343.7 534.731 349.097C561.269 356.752 577.624 368.588 581.249 372.2C582.699 373.644 581.29 375.812 580.156 377.407C574.735 385.037 563.639 388.494 554.392 392.133C545.803 395.513 538.289 392.146 534.46 389.899C527.713 385.939 523.801 380.388 522.219 377.679C519.362 372.785 519.728 365.927 520.162 351.243C522.851 344.23 526.042 339.654 529.198 336.945C531.011 335.58 533.251 334.236 535.56 332.851" stroke="#595959" stroke-width="2" stroke-linecap="round"/>
<path d="M543.706 307.053C546.843 315.58 557.692 337.305 566.083 356.314C569.524 364.109 570.849 369.946 573.558 373.11C574.816 374.579 576.266 375.377 577.855 375.167C579.444 374.956 581.236 373.612 582.831 372.248C584.427 370.883 585.771 369.539 587.156 368.154" stroke="#595959" stroke-width="2" stroke-linecap="round"/>
<path d="M587.156 326.062C585.364 326.062 576.375 326.062 563.259 326.286C556.415 326.958 553.225 327.868 550.292 328.771C548.703 329.226 546.911 329.674 542.349 331.493" stroke="#595959" stroke-width="2" stroke-linecap="round"/>
<path d="M420.147 282.613C415.205 282.613 393.589 278.132 376.304 275.152C354.621 271.413 337.403 273.543 318.869 282.776C309.37 287.508 294.633 298.255 283.424 306.917C253.018 330.417 249.092 345.044 245.012 352.947C243.071 356.706 240.076 363.049 238.685 375.466C237.293 387.883 237.741 406.254 240.66 424.455C243.58 442.656 248.956 460.131 253.071 470.925C261.64 493.409 269.866 502.983 271.238 515.427C272.268 524.778 279.806 531.048 293.526 542.311C303.149 550.211 320.241 559.847 348.72 568.069C377.2 576.29 417.079 582.115 451.064 585.116C485.05 588.117 511.934 588.117 540.346 585.204C568.758 582.292 597.882 576.467 618.263 569.433C650.972 558.145 664.958 543.785 672.419 539.942C676.859 537.655 682.161 532.488 695.664 521.673C718.428 503.441 736.052 494.442 738.53 491.958C747.123 483.34 757.749 471.373 767.933 456.472C775.33 445.647 781.755 433.382 781.782 400.429C781.805 372.25 765.516 358.676 755.787 346.477C746.286 334.562 731.571 324.732 719.364 317.719C706.823 310.513 689.561 300.318 676.818 294.174C666.52 289.209 654.19 287.148 639.777 283.55C616.052 277.627 598.955 271.75 592.187 271.078C584.3 270.295 563.788 265.885 535.533 263.169C517.641 261.45 506.639 263.59 498.281 266.299C491.13 268.617 471.458 273.081 444.771 277.827C431.525 281.228 420.229 283.061 406.216 284.412C400.269 285.315 396.684 286.659 391.633 288.044" stroke="#595959" stroke-width="2" stroke-linecap="round"/>
<path d="M136.368 786.355C145.33 771.989 166.212 740.271 168.045 731.615C168.93 727.438 169.865 722.565 168.738 717.596C167.772 713.337 163.551 710.332 158.358 708.295C155.938 707.346 153.612 707.602 151.338 708.723C140.564 714.029 138.649 726.584 136.599 739.443C134.651 751.66 138.609 761.439 142.675 765.058C147.683 769.514 155.785 770.957 162.818 772.546C167.432 773.588 172.105 771.88 175.493 769.402C185.379 762.172 185.249 748.35 184.577 745.641C183.763 742.364 179.831 740.651 177.122 739.517C175.845 738.983 174.414 739.728 173.273 740.631C172.132 741.534 171.236 742.878 171.671 743.794C172.79 746.154 177.985 745.621 182.051 745.173C188.705 744.439 193.368 736.605 197.238 732.728C197.459 732.507 195.242 732.939 193.647 735.41C189.553 741.751 189.322 751.011 190.442 757.793C191.305 763.019 197.903 764.616 202.187 766.653C204.523 767.763 207.815 767.345 210.327 766.673C212.839 766.001 214.631 764.657 216.003 762.62C218.93 758.273 219.194 751.989 218.97 746.564C218.676 739.465 210.639 731.635 202.024 726.849C200.319 725.902 198.854 725.715 197.489 726.157C191.691 728.032 192.499 734.745 191.814 737.678C191.449 739.238 193.368 741.059 195.405 742.43C199.752 745.357 208.725 745.621 217.999 744.949C225.864 744.379 229.133 736.143 231.848 731.174C233.028 729.014 232.772 727.1 231.651 727.073C227.857 726.981 224.638 733.373 222.602 740.135C221.41 744.091 221.909 749.585 222.581 752.803C223.253 756.021 224.598 756.918 226.858 756.931C229.119 756.945 232.256 756.049 234.319 754.915C241.203 751.133 239.561 725.878 236.186 705.62C234.189 693.628 225.114 687.29 223.26 683.379C215.98 668.019 244.476 716.998 255.365 732.45C261.496 741.15 265.793 747.848 270.769 751.724C271.862 752.575 273.478 751.514 275.291 747.922C288.422 721.906 280.756 694.948 278.502 692.456C277.477 691.324 275.352 692.205 274.205 693.78C271.524 697.46 272.148 711.119 273.044 726.958C273.36 732.554 275.732 732.939 277.328 732.722C284.253 731.779 287.083 723.923 288.652 723.882C316.163 723.168 302.019 770.441 299.555 782.424C297.496 792.433 279.018 793.578 261.197 796.294C240.458 799.454 226.01 796.321 221.264 794.291C219.105 793.367 217.863 791.813 217.17 790.224C213.975 782.893 215.12 768.785 216.919 759.674C217.538 756.542 228.169 754.691 248.447 751.079C261.041 748.836 278.584 747.467 291.394 746.544C311.822 745.621 321.911 743.828 325.977 740.665C327.804 739.293 329.148 738.397 330.533 736.116" stroke="#595959" stroke-width="2" stroke-linecap="round"/>
<rect x="3.5" y="3.5" width="345" height="300" fill="#3B3B3B" stroke="black" stroke-width="7"/>
<rect x="590.5" y="3.5" width="432" height="381" fill="#3B3B3B" stroke="black" stroke-width="7"/>
<path d="M63.0472 689.951C59.9243 699.809 50.8271 723.407 49.7001 733.36C49.392 736.081 49.4693 738.777 51.2616 740.162C53.0539 741.547 56.6385 741.547 59.6052 740.651C62.572 739.755 64.8124 737.963 65.9665 731.663C71.5205 701.344 63.5089 690.005 62.5992 682.959C62.1511 681.37 61.255 679.578 60.7933 675.966C60.3317 672.354 60.3317 666.977 60.3317 661.438" stroke="#595959" stroke-width="2" stroke-linecap="round"/>
<path d="M90.2031 699.456C90.2031 700.352 90.2031 703.054 89.531 706.672C89.251 708.18 87.5147 708.499 86.1501 708.057C83.0632 707.059 82.0564 701.302 79.3544 695.179C76.3245 688.312 73.9096 682.293 74.5817 676.414C75.0104 672.664 79.3272 671.404 81.812 670.718C82.93 670.409 83.8487 672.273 83.8622 673.637C83.8758 675.002 82.9797 676.346 81.8459 677.487C80.7121 678.627 79.3679 679.523 76.6252 681.804" stroke="#595959" stroke-width="2" stroke-linecap="round"/>
<path d="M111.928 673.658C110.136 672.761 107.868 671.404 104.935 670.046C103.434 669.351 101.554 669.584 100.183 670.928C93.6739 677.309 94.2765 685.837 94.9486 692.395C95.215 694.995 96.9649 695.817 99.6737 696.278C102.383 696.74 106.415 696.74 109.165 696.068C111.914 695.396 113.258 694.052 113.951 690.895C114.643 687.738 114.643 682.809 114.643 677.731" stroke="#595959" stroke-width="2" stroke-linecap="round"/>
<path d="M141.799 669.584C140.903 668.688 137.753 668.226 133.232 669.347C129.029 670.388 127.787 676.36 125.071 681.981C123.168 685.921 124.148 693.427 125.716 697.12C127.284 700.814 130.421 700.814 132.261 699.917C138.48 696.888 139.518 685.932 139.993 650.711C139.545 643.352 138.649 641.559 137.964 639.74C137.278 637.921 136.83 636.128 135.01 632.924" stroke="#595959" stroke-width="2" stroke-linecap="round"/>
<rect x="855.5" y="618.5" width="170" height="256" fill="#4C4C4C" stroke="black"/>
</svg>
